<svg width="20" height="20" viewBox="0 0 20 20" fill="none" xmlns="http://www.w3.org/2000/svg">
<path d="M9.99917 6.14746C7.87083 6.14746 6.14667 7.87246 6.14667 9.99996C6.14667 12.1283 7.87083 13.8533 9.99917 13.8533C12.1258 13.8533 13.8517 12.1283 13.8517 9.99996C13.8517 7.87246 12.1258 6.14746 9.99917 6.14746ZM9.99917 12.5033C8.61667 12.5033 7.49583 11.3825 7.49583 10.0008C7.49583 8.61829 8.61667 7.49829 9.99917 7.49829C11.3817 7.49829 12.5008 8.61829 12.5008 10.0008C12.5008 11.3825 11.3817 12.5033 9.99917 12.5033Z" fill="white" fill-opacity="0.8"/>
<path d="M14.005 6.90409C14.5012 6.90409 14.9034 6.50189 14.9034 6.00575C14.9034 5.50962 14.5012 5.10742 14.005 5.10742C13.5089 5.10742 13.1067 5.50962 13.1067 6.00575C13.1067 6.50189 13.5089 6.90409 14.005 6.90409Z" fill="white" fill-opacity="0.8"/>
<path d="M17.1109 5.09273C16.72 4.08523 15.9242 3.28856 14.9167 2.89939C14.3342 2.68023 13.7184 2.56273 13.095 2.54939C12.2925 2.51439 12.0384 2.50439 10.0034 2.50439C7.96838 2.50439 7.70754 2.50439 6.91171 2.54939C6.29004 2.56189 5.67421 2.67939 5.09171 2.89939C4.08338 3.28856 3.28754 4.08523 2.89754 5.09273C2.67838 5.67606 2.56088 6.29106 2.54838 6.91439C2.51254 7.71606 2.50171 7.97023 2.50171 10.0061C2.50171 12.0411 2.50171 12.3002 2.54838 13.0977C2.56088 13.7211 2.67838 14.3361 2.89754 14.9202C3.28838 15.9269 4.08421 16.7236 5.09254 17.1136C5.67254 17.3402 6.28838 17.4686 6.91338 17.4886C7.71588 17.5236 7.97004 17.5344 10.005 17.5344C12.04 17.5344 12.3009 17.5344 13.0967 17.4886C13.7192 17.4761 14.335 17.3577 14.9184 17.1394C15.9259 16.7486 16.7217 15.9527 17.1125 14.9452C17.3317 14.3619 17.4492 13.7469 17.4617 13.1236C17.4975 12.3219 17.5084 12.0677 17.5084 10.0319C17.5084 7.99606 17.5084 7.73773 17.4617 6.94023C17.4509 6.30856 17.3342 5.68273 17.1109 5.09273ZM16.0959 13.0361C16.09 13.5161 16.0034 13.9919 15.8367 14.4427C15.5825 15.0986 15.065 15.6169 14.41 15.8686C13.9642 16.0344 13.4942 16.1211 13.0184 16.1277C12.2267 16.1644 12.0034 16.1736 9.97338 16.1736C7.94171 16.1736 7.73421 16.1736 6.92754 16.1277C6.45338 16.1219 5.98171 16.0344 5.53671 15.8686C4.87921 15.6177 4.35838 15.0994 4.10421 14.4427C3.94088 13.9977 3.85254 13.5269 3.84504 13.0519C3.80921 12.2602 3.80088 12.0369 3.80088 10.0069C3.80088 7.97606 3.80088 7.76856 3.84504 6.96106C3.85088 6.48106 3.93754 6.00606 4.10421 5.55523C4.35838 4.89773 4.87921 4.38023 5.53671 4.12856C5.98171 3.96356 6.45338 3.87606 6.92754 3.86939C7.72004 3.83356 7.94254 3.82356 9.97338 3.82356C12.0042 3.82356 12.2125 3.82356 13.0184 3.86939C13.4942 3.87523 13.9642 3.96273 14.41 4.12856C15.065 4.38106 15.5825 4.89939 15.8367 5.55523C16 6.00023 16.0884 6.47106 16.0959 6.94606C16.1317 7.73856 16.1409 7.96106 16.1409 9.99189C16.1409 12.0219 16.1409 12.2402 16.105 13.0369H16.0959V13.0361Z" fill="white" fill-opacity="0.8"/>
</svg>
