<svg width="190" height="156" viewBox="0 0 190 156" fill="none" xmlns="http://www.w3.org/2000/svg">
<path d="M0 16.7941C0 15.6819 0.901601 14.7803 2.01378 14.7803H105.641C106.753 14.7803 107.655 15.6819 107.655 16.7941V120.421C107.655 121.533 106.753 122.435 105.641 122.435H2.01379C0.901604 122.435 0 121.533 0 120.421V16.7941Z" fill="url(#paint0_linear_878_3411)"/>
<path d="M0.201378 16.7941C0.201378 15.7931 1.01282 14.9817 2.01378 14.9817H105.641C106.642 14.9817 107.453 15.7931 107.453 16.7941V120.421C107.453 121.422 106.642 122.234 105.641 122.234H2.01379C1.01282 122.234 0.201378 121.422 0.201378 120.421V16.7941Z" stroke="white" stroke-opacity="0.05" stroke-width="0.402757"/>
<path d="M35.7654 94.8749H72.2723C73.7125 94.8749 74.8799 93.7074 74.8799 92.2673V55.7603L63.1455 42.7222H35.7654C34.3252 42.7222 33.1577 43.8896 33.1577 45.3298V92.2673C33.1577 93.7074 34.3252 94.8749 35.7654 94.8749Z" stroke="#4C6EF5" stroke-opacity="0.7" stroke-width="4" stroke-linecap="round" stroke-linejoin="round"/>
<path d="M51.4112 79.2293C55.7316 79.2293 59.2341 75.7269 59.2341 71.4064C59.2341 67.0859 55.7316 63.5835 51.4112 63.5835C47.0907 63.5835 43.5883 67.0859 43.5883 71.4064C43.5883 75.7269 47.0907 79.2293 51.4112 79.2293Z" fill="#171D26" stroke="#4C6EF5" stroke-opacity="0.7" stroke-width="4"/>
<path d="M57.9302 76.6216L64.4493 81.8369" stroke="#4C6EF5" stroke-opacity="0.7" stroke-width="4" stroke-linecap="round" stroke-linejoin="round"/>
<path d="M61.8416 42.7222V55.7603H74.8797" stroke="#4C6EF5" stroke-opacity="0.7" stroke-width="4" stroke-linecap="round" stroke-linejoin="round"/>
<rect x="49.6408" y="102.698" width="139.714" height="52.7038" rx="0.598082" fill="url(#paint1_linear_878_3411)"/>
<path d="M71.9755 136.11H74.497V131.407H77.1612C80.3759 131.407 82.1021 129.477 82.1021 126.799C82.1021 124.142 80.3962 122.191 77.1952 122.191H71.9755V136.11ZM74.497 129.334V124.298H76.8078C78.6972 124.298 79.5331 125.317 79.5331 126.799C79.5331 128.281 78.6972 129.334 76.8214 129.334H74.497ZM84.2923 136.11H93.3994V133.996H86.8137V130.197H92.8761V128.084H86.8137V124.305H93.3451V122.191H84.2923V136.11ZM103.482 126.017H105.908C105.861 123.666 103.856 122.001 100.892 122.001C97.97 122.001 95.7748 123.646 95.7816 126.106C95.7816 128.104 97.202 129.253 99.4924 129.844L101.076 130.252C102.578 130.632 103.57 131.101 103.577 132.182C103.57 133.371 102.442 134.166 100.797 134.166C99.2205 134.166 97.9972 133.46 97.8952 131.998H95.4146C95.5165 134.764 97.5758 136.321 100.818 136.321C104.155 136.321 106.092 134.656 106.098 132.202C106.092 129.789 104.1 128.688 102.007 128.192L100.702 127.866C99.5604 127.594 98.3234 127.112 98.337 125.95C98.3438 124.903 99.2817 124.135 100.858 124.135C102.36 124.135 103.353 124.835 103.482 126.017ZM120.784 129.151C120.784 124.651 118.038 122.001 114.388 122.001C110.732 122.001 107.993 124.651 107.993 129.151C107.993 133.643 110.732 136.3 114.388 136.3C115.272 136.3 116.101 136.144 116.855 135.845L118.004 137.306H120.451L118.521 134.832C119.921 133.609 120.784 131.672 120.784 129.151ZM113.532 131.434L115.415 133.908C115.088 133.996 114.749 134.037 114.388 134.037C112.125 134.037 110.528 132.318 110.528 129.151C110.528 125.983 112.125 124.264 114.388 124.264C116.658 124.264 118.249 125.983 118.249 129.151C118.249 130.863 117.787 132.148 116.998 132.97L115.816 131.434H113.532ZM131.96 122.191V131.074C131.96 132.821 130.744 134.071 128.834 134.071C126.917 134.071 125.708 132.821 125.708 131.074V122.191H123.186V131.285C123.186 134.275 125.429 136.321 128.834 136.321C132.225 136.321 134.482 134.275 134.482 131.285V122.191H131.96ZM139.744 122.191H137.223V136.11H139.744V122.191ZM150.039 126.017H152.465C152.418 123.666 150.413 122.001 147.449 122.001C144.527 122.001 142.332 123.646 142.338 126.106C142.338 128.104 143.759 129.253 146.049 129.844L147.633 130.252C149.135 130.632 150.127 131.101 150.134 132.182C150.127 133.371 148.999 134.166 147.354 134.166C145.777 134.166 144.554 133.46 144.452 131.998H141.971C142.073 134.764 144.133 136.321 147.375 136.321C150.712 136.321 152.649 134.656 152.655 132.202C152.649 129.789 150.657 128.688 148.564 128.192L147.259 127.866C146.117 127.594 144.88 127.112 144.894 125.95C144.901 124.903 145.839 124.135 147.415 124.135C148.917 124.135 149.91 124.835 150.039 126.017ZM156.466 136.11L157.615 132.678H162.848L164.004 136.11H166.695L161.788 122.191H158.675L153.775 136.11H156.466ZM158.295 130.653L160.177 125.046H160.286L162.169 130.653H158.295Z" fill="#3A53B4"/>
<rect x="49.6408" y="102.698" width="139.714" height="52.7038" rx="0.598082" stroke="#252A34" stroke-width="1.19616"/>
<path d="M104.547 41.8859C114.686 41.8859 120.809 34.1684 120.829 20.8794C120.848 7.68875 114.647 0.128752 104.547 0.128752C94.4277 0.128752 88.2852 7.66907 88.2655 20.8794C88.2261 34.1291 94.3883 41.8662 104.547 41.8859ZM104.547 34.8181C99.9205 34.8181 96.928 30.1719 96.9477 20.8794C96.9673 11.7247 99.9402 7.11782 104.547 7.11782C109.134 7.11782 112.127 11.7247 112.127 20.8794C112.146 30.1719 109.154 34.8181 104.547 34.8181ZM144.449 0.680003H136.436L126.454 6.99969V14.5597L135.688 8.77156H135.924V41H144.449V0.680003Z" fill="#3A53B4"/>
<defs>
<linearGradient id="paint0_linear_878_3411" x1="0" y1="68.6076" x2="107.655" y2="68.6076" gradientUnits="userSpaceOnUse">
<stop stop-color="#1A1F29"/>
<stop offset="1" stop-color="#0D1118"/>
</linearGradient>
<linearGradient id="paint1_linear_878_3411" x1="169.055" y1="185.879" x2="59.2887" y2="111.904" gradientUnits="userSpaceOnUse">
<stop stop-color="#191F28"/>
<stop offset="1" stop-color="#191F28" stop-opacity="0"/>
</linearGradient>
</defs>
</svg>
