<svg width="184" height="158" viewBox="0 0 184 158" fill="none" xmlns="http://www.w3.org/2000/svg">
<path d="M0 18.0138C0 16.9016 0.901601 16 2.01378 16H105.641C106.753 16 107.655 16.9016 107.655 18.0138V121.641C107.655 122.753 106.753 123.655 105.641 123.655H2.01379C0.901604 123.655 0 122.753 0 121.641V18.0138Z" fill="url(#paint0_linear_878_3597)"/>
<path d="M0.201378 18.0138C0.201378 17.0128 1.01282 16.2014 2.01378 16.2014H105.641C106.642 16.2014 107.453 17.0128 107.453 18.0138V121.641C107.453 122.642 106.642 123.453 105.641 123.453H2.01379C1.01282 123.453 0.201378 122.642 0.201378 121.641V18.0138Z" stroke="white" stroke-opacity="0.05" stroke-width="0.402757"/>
<path d="M91 32H16V107H91V32Z" fill="white" fill-opacity="0.01"/>
<path d="M48.6656 41.4728L50.8998 39.9833C52.4744 38.9336 54.5256 38.9336 56.1002 39.9833L58.3344 41.4728C67.0281 47.2686 72.25 57.0258 72.25 67.4744V83.5624H34.75V67.4744C34.75 57.0258 39.9719 47.2686 48.6656 41.4728Z" stroke="#4C6EF5" stroke-opacity="0.7" stroke-width="4" stroke-linecap="round" stroke-linejoin="round"/>
<path d="M53.5 72.625C58.6777 72.625 62.875 68.4277 62.875 63.25C62.875 58.0723 58.6777 53.875 53.5 53.875C48.3223 53.875 44.125 58.0723 44.125 63.25C44.125 68.4277 48.3223 72.625 53.5 72.625Z" fill="#0D1118" stroke="#4C6EF5" stroke-opacity="0.7" stroke-width="4"/>
<path d="M34.75 66.375L25.375 76.0897V83.5625H81.625V76.0897L72.25 66.375" stroke="#4C6EF5" stroke-opacity="0.7" stroke-width="4" stroke-linecap="round" stroke-linejoin="round"/>
<path d="M53.5 91.375V100.75" stroke="#4C6EF5" stroke-opacity="0.7" stroke-width="4" stroke-linecap="round" stroke-linejoin="round"/>
<path d="M41 94.5V97.625" stroke="#4C6EF5" stroke-opacity="0.7" stroke-width="4" stroke-linecap="round" stroke-linejoin="round"/>
<path d="M66 94.5V97.625" stroke="#4C6EF5" stroke-opacity="0.7" stroke-width="4" stroke-linecap="round" stroke-linejoin="round"/>
<rect x="49.6408" y="103.698" width="132.924" height="52.8238" rx="0.598082" fill="url(#paint1_linear_878_3597)"/>
<path d="M71.9757 137.11H81.0828V134.996H74.4971V131.197H80.5595V129.084H74.4971V125.305H81.0284V123.191H71.9757V137.11ZM95.0392 123.191H92.5313V132.679H92.409L85.8573 123.191H83.6009V137.11H86.1223V127.629H86.2379L92.7964 137.11H95.0392V123.191ZM97.1749 125.305H101.477V137.11H103.978V125.305H108.28V123.191H97.1749V125.305ZM110.421 137.11H112.943V132.013H115.512L118.244 137.11H121.057L118.047 131.591C119.685 130.932 120.548 129.532 120.548 127.643C120.548 124.985 118.835 123.191 115.641 123.191H110.421V137.11ZM112.943 129.92V125.298H115.253C117.136 125.298 117.979 126.161 117.979 127.643C117.979 129.124 117.136 129.92 115.267 129.92H112.943ZM122.869 137.11H131.976V134.996H125.39V131.197H131.453V129.084H125.39V125.305H131.921V123.191H122.869V137.11ZM143.819 127.636H146.388C145.959 124.904 143.594 123.001 140.515 123.001C136.873 123.001 134.14 125.679 134.14 130.164C134.14 134.568 136.75 137.3 140.59 137.3C144.036 137.3 146.503 135.085 146.503 131.496V129.824H140.855V131.795H144.063C144.022 133.78 142.697 135.037 140.604 135.037C138.273 135.037 136.676 133.291 136.676 130.137C136.676 127.004 138.3 125.264 140.549 125.264C142.228 125.264 143.37 126.161 143.819 127.636ZM150.299 137.11L151.447 133.678H156.681L157.836 137.11H160.527L155.62 123.191H152.508L147.608 137.11H150.299ZM152.127 131.653L154.01 126.046H154.118L156.001 131.653H152.127Z" fill="#4C6EF5" fill-opacity="0.8"/>
<rect x="49.6408" y="103.698" width="132.924" height="52.8238" rx="0.598082" stroke="#252A34" stroke-width="1.19616"/>
<path d="M104.547 41.8859C114.686 41.8859 120.809 34.1684 120.829 20.8794C120.848 7.68875 114.647 0.128752 104.547 0.128752C94.4277 0.128752 88.2852 7.66907 88.2655 20.8794C88.2261 34.1291 94.3883 41.8662 104.547 41.8859ZM104.547 34.8181C99.9205 34.8181 96.928 30.1719 96.9477 20.8794C96.9673 11.7247 99.9402 7.11782 104.547 7.11782C109.134 7.11782 112.127 11.7247 112.127 20.8794C112.146 30.1719 109.154 34.8181 104.547 34.8181ZM126.297 33.9125H145.65V41H153.8V33.9125H158.801V27.0809H153.8V0.680003H143.13L126.297 27.1991V33.9125ZM145.807 27.0809H134.881V26.7659L145.492 9.9725H145.807V27.0809Z" fill="#4C6EF5" fill-opacity="0.8"/>
<defs>
<linearGradient id="paint0_linear_878_3597" x1="0" y1="69.8274" x2="107.655" y2="69.8274" gradientUnits="userSpaceOnUse">
<stop stop-color="#1A1F29"/>
<stop offset="1" stop-color="#0D1118"/>
</linearGradient>
<linearGradient id="paint1_linear_878_3597" x1="163.272" y1="187.066" x2="55.4936" y2="118.083" gradientUnits="userSpaceOnUse">
<stop stop-color="#191F28"/>
<stop offset="1" stop-color="#191F28" stop-opacity="0"/>
</linearGradient>
</defs>
</svg>
