<svg width="210" height="158" viewBox="0 0 210 158" fill="none" xmlns="http://www.w3.org/2000/svg">
<path d="M0 18.0138C0 16.9016 0.901601 16 2.01378 16H105.641C106.753 16 107.655 16.9016 107.655 18.0138V121.641C107.655 122.753 106.753 123.655 105.641 123.655H2.01379C0.901604 123.655 0 122.753 0 121.641V18.0138Z" fill="url(#paint0_linear_878_3569)"/>
<path d="M0.201378 18.0138C0.201378 17.0128 1.01282 16.2014 2.01378 16.2014H105.641C106.642 16.2014 107.453 17.0128 107.453 18.0138V121.641C107.453 122.642 106.642 123.453 105.641 123.453H2.01379C1.01282 123.453 0.201378 122.642 0.201378 121.641V18.0138Z" stroke="white" stroke-opacity="0.05" stroke-width="0.402757"/>
<path d="M85 38H22V101H85V38Z" fill="white" fill-opacity="0.01"/>
<path d="M71.875 64.25H45.625V74.75H71.875V64.25Z" fill="#0D1118" stroke="#4C6EF5" stroke-opacity="0.7" stroke-width="4" stroke-linejoin="round"/>
<path d="M64 45.875H45.625V56.375H64V45.875Z" fill="#0D1118" stroke="#4C6EF5" stroke-opacity="0.7" stroke-width="4" stroke-linejoin="round"/>
<path d="M79.75 82.625H45.625V93.125H79.75V82.625Z" fill="#0D1118" stroke="#4C6EF5" stroke-opacity="0.7" stroke-width="4" stroke-linejoin="round"/>
<path d="M44.3125 51.125H28.5625" stroke="#4C6EF5" stroke-opacity="0.7" stroke-width="4" stroke-linecap="round" stroke-linejoin="round"/>
<path d="M44.3125 69.5H28.5625" stroke="#4C6EF5" stroke-opacity="0.7" stroke-width="4" stroke-linecap="round" stroke-linejoin="round"/>
<path d="M44.3125 87.875H28.5625" stroke="#4C6EF5" stroke-opacity="0.7" stroke-width="4" stroke-linecap="round" stroke-linejoin="round"/>
<path d="M28.5625 95.75V43.25" stroke="#4C6EF5" stroke-opacity="0.7" stroke-width="4" stroke-linecap="round" stroke-linejoin="round"/>
<rect x="49.6408" y="103.698" width="158.924" height="52.8238" rx="0.598082" fill="url(#paint1_linear_878_3569)"/>
<path d="M71.9757 137.11H81.0828V134.996H74.4971V131.197H80.5595V129.084H74.4971V125.305H81.0284V123.191H71.9757V137.11ZM91.1652 127.017H93.5915C93.544 124.666 91.539 123.001 88.5758 123.001C85.6534 123.001 83.4581 124.646 83.4649 127.106C83.4649 129.104 84.8854 130.253 87.1758 130.844L88.7593 131.252C90.2613 131.632 91.2536 132.101 91.2604 133.182C91.2536 134.371 90.1254 135.166 88.4807 135.166C86.9039 135.166 85.6806 134.46 85.5786 132.998H83.0979C83.1999 135.764 85.2592 137.321 88.5011 137.321C91.8381 137.321 93.7751 135.656 93.7818 133.202C93.7751 130.789 91.7837 129.688 89.6904 129.192L88.3855 128.866C87.2437 128.594 86.0068 128.112 86.0204 126.95C86.0272 125.903 86.9651 125.135 88.5418 125.135C90.0438 125.135 91.0361 125.835 91.1652 127.017ZM95.4181 125.305H99.7202V137.11H102.221V125.305H106.523V123.191H95.4181V125.305ZM108.664 137.11H111.186V132.013H113.755L116.487 137.11H119.301L116.29 131.591C117.928 130.932 118.791 129.532 118.791 127.643C118.791 124.985 117.078 123.191 113.884 123.191H108.664V137.11ZM111.186 129.92V125.298H113.496C115.379 125.298 116.222 126.161 116.222 127.643C116.222 129.124 115.379 129.92 113.51 129.92H111.186ZM129.886 123.191V132.074C129.886 133.821 128.669 135.071 126.76 135.071C124.843 135.071 123.633 133.821 123.633 132.074V123.191H121.112V132.285C121.112 135.275 123.355 137.321 126.76 137.321C130.151 137.321 132.407 135.275 132.407 132.285V123.191H129.886ZM134.536 125.305H138.838V137.11H141.34V125.305H145.642V123.191H134.536V125.305ZM156.557 123.191V132.074C156.557 133.821 155.34 135.071 153.43 135.071C151.514 135.071 150.304 133.821 150.304 132.074V123.191H147.783V132.285C147.783 135.275 150.025 137.321 153.43 137.321C156.822 137.321 159.078 135.275 159.078 132.285V123.191H156.557ZM161.819 137.11H164.34V132.013H166.909L169.641 137.11H172.455L169.444 131.591C171.082 130.932 171.945 129.532 171.945 127.643C171.945 124.985 170.233 123.191 167.038 123.191H161.819V137.11ZM164.34 129.92V125.298H166.651C168.534 125.298 169.376 126.161 169.376 127.643C169.376 129.124 168.534 129.92 166.665 129.92H164.34ZM176.054 137.11L177.202 133.678H182.436L183.591 137.11H186.282L181.375 123.191H178.263L173.362 137.11H176.054ZM177.882 131.653L179.765 126.046H179.873L181.756 131.653H177.882Z" fill="#4C6EF5" fill-opacity="0.8"/>
<rect x="49.6408" y="103.698" width="158.924" height="52.8238" rx="0.598082" stroke="#252A34" stroke-width="1.19616"/>
<path d="M104.547 41.8859C114.686 41.8859 120.809 34.1684 120.829 20.8794C120.848 7.68875 114.647 0.128752 104.547 0.128752C94.4277 0.128752 88.2852 7.66907 88.2655 20.8794C88.2261 34.1291 94.3883 41.8662 104.547 41.8859ZM104.547 34.8181C99.9205 34.8181 96.928 30.1719 96.9477 20.8794C96.9673 11.7247 99.9402 7.11782 104.547 7.11782C109.134 7.11782 112.127 11.7247 112.127 20.8794C112.146 30.1719 109.154 34.8181 104.547 34.8181ZM126.907 41H155.651V34.0306H138.72V33.755L144.606 27.9866C152.895 20.4266 155.119 16.6466 155.119 12.0594C155.119 5.07031 149.41 0.128752 140.767 0.128752C132.301 0.128752 126.494 5.18844 126.513 13.1028H134.605C134.585 9.24406 137.026 6.88157 140.708 6.88157C144.252 6.88157 146.89 9.08656 146.89 12.6303C146.89 15.8394 144.921 18.0444 141.259 21.5684L126.907 34.8575V41Z" fill="#4C6EF5" fill-opacity="0.8"/>
<defs>
<linearGradient id="paint0_linear_878_3569" x1="0" y1="69.8274" x2="107.655" y2="69.8274" gradientUnits="userSpaceOnUse">
<stop stop-color="#1A1F29"/>
<stop offset="1" stop-color="#0D1118"/>
</linearGradient>
<linearGradient id="paint1_linear_878_3569" x1="185.416" y1="187.066" x2="70.8977" y2="99.5607" gradientUnits="userSpaceOnUse">
<stop stop-color="#191F28"/>
<stop offset="1" stop-color="#191F28" stop-opacity="0"/>
</linearGradient>
</defs>
</svg>
