<svg width="460" height="476" viewBox="0 0 460 476" fill="none" xmlns="http://www.w3.org/2000/svg">
<rect x="21.2292" y="0.229167" width="417.542" height="474.833" rx="3.4375" fill="#F8F8FA"/>
<path d="M52.1668 23.2764C52.1675 22.7027 52.119 22.1301 52.0218 21.5648H44.0837V24.8067H48.6303C48.5373 25.3244 48.3403 25.818 48.0514 26.2576C47.7625 26.6973 47.3875 27.0738 46.9492 27.3646V29.469H49.6626C51.2514 28.0041 52.1668 25.8378 52.1668 23.2764Z" fill="#4285F4"/>
<path d="M44.084 31.5022C46.3556 31.5022 48.2682 30.7563 49.6629 29.4703L46.9495 27.366C46.1942 27.878 45.2216 28.1703 44.084 28.1703C41.8885 28.1703 40.025 26.6902 39.3586 24.6958H36.5634V26.8644C37.2639 28.2585 38.3382 29.4305 39.6663 30.2494C40.9943 31.0684 42.5238 31.5021 44.084 31.5022Z" fill="#34A853"/>
<path d="M39.3584 24.6958C39.0061 23.6507 39.0061 22.5189 39.3584 21.4738V19.3052H36.5632C35.9738 20.4779 35.6669 21.7723 35.6669 23.0848C35.6669 24.3973 35.9738 25.6917 36.5632 26.8644L39.3584 24.6958Z" fill="#FBBC04"/>
<path d="M44.084 17.9993C45.2844 17.9797 46.4443 18.4332 47.313 19.2619L49.7155 16.8594C48.1921 15.4286 46.1739 14.643 44.084 14.6674C42.5238 14.6675 40.9943 15.1012 39.6663 15.9202C38.3382 16.7391 37.2639 17.9111 36.5634 19.3052L39.3586 21.4738C40.025 19.4794 41.8885 17.9993 44.084 17.9993Z" fill="#EA4335"/>
<rect x="66.8336" y="14.2083" width="357.5" height="16.9583" rx="3.66667" fill="white"/>
<rect x="74.1669" y="20.6251" width="101.75" height="4.58333" rx="2.29167" fill="#9898A1"/>
<rect x="66.8331" y="102.208" width="298.833" height="4.58333" rx="2.29167" fill="#D6D6DF"/>
<rect x="66.8331" y="110.458" width="95.3333" height="4.58333" rx="2.29167" fill="#D6D6DF"/>
<rect x="66.8334" y="68.7501" width="216.792" height="11" rx="3.66667" fill="#4C93E8"/>
<rect x="66.8331" y="84.3334" width="109.083" height="11" rx="3.66667" fill="#A1DD93"/>
<rect x="66.8331" y="163.625" width="255.75" height="4.58333" rx="2.29167" fill="#D6D6DF"/>
<rect x="66.8331" y="173.25" width="124.208" height="4.58333" rx="2.29167" fill="#D6D6DF"/>
<rect x="66.8334" y="131.542" width="168.667" height="11" rx="3.66667" fill="#4C93E8"/>
<rect x="66.8331" y="147.125" width="88" height="11" rx="3.66667" fill="#A1DD93"/>
<rect x="66.8331" y="349.708" width="255.75" height="4.58333" rx="2.29167" fill="#D6D6DF"/>
<rect x="66.8331" y="359.333" width="124.208" height="4.58333" rx="2.29167" fill="#D6D6DF"/>
<rect x="66.8334" y="317.625" width="168.667" height="11" rx="3.66667" fill="#D6D6DF"/>
<rect x="66.8331" y="333.208" width="88" height="11" rx="3.66667" fill="#D6D6DF"/>
<rect x="66.8331" y="412.5" width="255.75" height="4.58333" rx="2.29167" fill="#D6D6DF"/>
<rect x="66.8331" y="422.125" width="124.208" height="4.58333" rx="2.29167" fill="#D6D6DF"/>
<rect x="66.8334" y="380.417" width="168.667" height="11" rx="3.66667" fill="#D6D6DF"/>
<rect x="66.8331" y="396" width="88" height="11" rx="3.66667" fill="#D6D6DF"/>
<rect x="66.8336" y="38.0415" width="36.6667" height="4.58333" rx="2.29167" fill="#D6D6DF"/>
<rect x="110.833" y="38.0415" width="36.6667" height="4.58333" rx="2.29167" fill="#D6D6DF"/>
<rect x="154.833" y="38.0415" width="36.6667" height="4.58333" rx="2.29167" fill="#D6D6DF"/>
<rect x="343.667" y="38.0415" width="36.6667" height="4.58333" rx="2.29167" fill="#D6D6DF"/>
<rect x="198.833" y="38.0415" width="36.6667" height="4.58333" rx="2.29167" fill="#D6D6DF"/>
<rect x="387.667" y="38.0415" width="36.6667" height="4.58333" rx="2.29167" fill="#D6D6DF"/>
<rect x="1.06217" y="184.938" width="458.094" height="115.958" rx="3.4375" fill="white" stroke="#E2E8F0" stroke-width="0.458333"/>
<rect x="39.6388" y="255.852" width="360.892" height="6.46759" rx="3.2338" fill="#D6D6DF"/>
<rect x="39.6388" y="269.434" width="175.272" height="6.46759" rx="3.2338" fill="#D6D6DF"/>
<rect x="39.6384" y="210.579" width="238.007" height="15.5222" rx="5.17407" fill="#4C93E8"/>
<rect x="39.6388" y="232.569" width="124.178" height="15.5222" rx="5.17407" fill="#A1DD93"/>
<rect x="21.2292" y="0.229167" width="417.542" height="474.833" rx="3.4375" stroke="#E2E8F0" stroke-width="0.458333"/>
</svg>
