<svg width="284" height="158" viewBox="0 0 284 158" fill="none" xmlns="http://www.w3.org/2000/svg">
<path d="M0 18.0138C0 16.9016 0.901601 16 2.01378 16H105.641C106.753 16 107.655 16.9016 107.655 18.0138V121.641C107.655 122.753 106.753 123.655 105.641 123.655H2.01379C0.901604 123.655 0 122.753 0 121.641V18.0138Z" fill="url(#paint0_linear_878_3583)"/>
<path d="M0.201378 18.0138C0.201378 17.0128 1.01282 16.2014 2.01378 16.2014H105.641C106.642 16.2014 107.453 17.0128 107.453 18.0138V121.641C107.453 122.642 106.642 123.453 105.641 123.453H2.01379C1.01282 123.453 0.201378 122.642 0.201378 121.641V18.0138Z" stroke="white" stroke-opacity="0.05" stroke-width="0.402757"/>
<path d="M74.5 68.1875V56.375L62.6875 43.25H35.125C33.6753 43.25 32.5 44.4253 32.5 45.875V93.125C32.5 94.5748 33.6753 95.75 35.125 95.75H50.875" stroke="#4C6EF5" stroke-opacity="0.7" stroke-width="4" stroke-linecap="round" stroke-linejoin="round"/>
<path d="M70.5625 78.6875L77.125 85.25L70.5625 91.8125" stroke="#4C6EF5" stroke-opacity="0.7" stroke-width="4" stroke-linecap="round" stroke-linejoin="round"/>
<path d="M62.6875 78.6875L56.125 85.25L62.6875 91.8125" stroke="#4C6EF5" stroke-opacity="0.7" stroke-width="4" stroke-linecap="round" stroke-linejoin="round"/>
<path d="M61.375 43.25V56.375H74.5" stroke="#4C6EF5" stroke-opacity="0.7" stroke-width="4" stroke-linecap="round" stroke-linejoin="round"/>
<rect x="49.6408" y="103.698" width="232.924" height="52.8238" rx="0.598082" fill="url(#paint1_linear_878_3583)"/>
<path d="M76.6923 137.11C80.9333 137.11 83.4479 134.487 83.4479 130.137C83.4479 125.801 80.9333 123.191 76.7875 123.191H71.9757V137.11H76.6923ZM74.4971 134.928V125.373H76.6448C79.4721 125.373 80.9469 126.95 80.9469 130.137C80.9469 133.338 79.4721 134.928 76.57 134.928H74.4971ZM85.8437 137.11H94.9508V134.996H88.3651V131.197H94.4275V129.084H88.3651V125.305H94.8965V123.191H85.8437V137.11ZM105.033 127.017H107.46C107.412 124.666 105.407 123.001 102.444 123.001C99.5214 123.001 97.3262 124.646 97.333 127.106C97.333 129.104 98.7534 130.253 101.044 130.844L102.627 131.252C104.129 131.632 105.122 132.101 105.128 133.182C105.122 134.371 103.993 135.166 102.349 135.166C100.772 135.166 99.5486 134.46 99.4466 132.998H96.966C97.0679 135.764 99.1272 137.321 102.369 137.321C105.706 137.321 107.643 135.656 107.65 133.202C107.643 130.789 105.652 129.688 103.558 129.192L102.254 128.866C101.112 128.594 99.8748 128.112 99.8884 126.95C99.8952 125.903 100.833 125.135 102.41 125.135C103.912 125.135 104.904 125.835 105.033 127.017ZM109.898 137.11H119.005V134.996H112.419V131.197H118.482V129.084H112.419V125.305H118.951V123.191H109.898V137.11ZM132.961 123.191H130.453V132.679H130.331L123.779 123.191H121.523V137.11H124.044V127.629H124.16L130.718 137.11H132.961V123.191ZM137.571 123.191H134.805L139.705 137.11H142.818L147.725 123.191H144.952L141.336 134.147H141.193L137.571 123.191ZM161.248 130.151C161.248 125.651 158.502 123.001 154.852 123.001C151.196 123.001 148.457 125.651 148.457 130.151C148.457 134.643 151.196 137.3 154.852 137.3C158.502 137.3 161.248 134.65 161.248 130.151ZM158.713 130.151C158.713 133.318 157.122 135.037 154.852 135.037C152.589 135.037 150.992 133.318 150.992 130.151C150.992 126.983 152.589 125.264 154.852 125.264C157.122 125.264 158.713 126.983 158.713 130.151ZM163.632 137.11H172.283V134.996H166.153V123.191H163.632V137.11ZM174.895 123.191H172.129L177.029 137.11H180.142L185.049 123.191H182.276L178.66 134.147H178.517L174.895 123.191ZM189.404 123.191H186.882V137.11H189.404V123.191ZM192.134 123.191V137.11H194.554V127.527H194.683L198.529 137.069H200.337L204.184 127.548H204.313V137.11H206.733V123.191H203.647L199.515 133.277H199.352L195.22 123.191H192.134ZM209.478 137.11H218.586V134.996H212V131.197H218.062V129.084H212V125.305H218.531V123.191H209.478V137.11ZM232.542 123.191H230.034V132.679H229.912L223.36 123.191H221.104V137.11H223.625V127.629H223.741L230.299 137.11H232.542V123.191ZM234.678 125.305H238.98V137.11H241.481V125.305H245.783V123.191H234.678V125.305ZM259.763 130.151C259.763 125.651 257.017 123.001 253.368 123.001C249.711 123.001 246.972 125.651 246.972 130.151C246.972 134.643 249.711 137.3 253.368 137.3C257.017 137.3 259.763 134.65 259.763 130.151ZM257.228 130.151C257.228 133.318 255.638 135.037 253.368 135.037C251.105 135.037 249.507 133.318 249.507 130.151C249.507 126.983 251.105 125.264 253.368 125.264C255.638 125.264 257.228 126.983 257.228 130.151Z" fill="#4C6EF5" fill-opacity="0.8"/>
<rect x="49.6408" y="103.698" width="232.924" height="52.8238" rx="0.598082" stroke="#252A34" stroke-width="1.19616"/>
<path d="M104.547 41.8859C114.686 41.8859 120.809 34.1684 120.829 20.8794C120.848 7.68875 114.647 0.128752 104.547 0.128752C94.4277 0.128752 88.2852 7.66907 88.2655 20.8794C88.2261 34.1291 94.3883 41.8662 104.547 41.8859ZM104.547 34.8181C99.9205 34.8181 96.928 30.1719 96.9477 20.8794C96.9673 11.7247 99.9402 7.11782 104.547 7.11782C109.134 7.11782 112.127 11.7247 112.127 20.8794C112.146 30.1719 109.154 34.8181 104.547 34.8181ZM141.811 41.5512C150.867 41.5512 157.344 36.5703 157.324 29.6797C157.344 24.6594 154.155 21.0763 148.229 20.3281V20.0131C152.737 19.2059 155.848 16.0166 155.828 11.4884C155.848 5.12938 150.276 0.128752 141.929 0.128752C133.66 0.128752 127.439 4.97188 127.321 11.9413H135.491C135.589 8.87 138.405 6.88157 141.889 6.88157C145.335 6.88157 147.638 8.96844 147.618 12.0003C147.638 15.17 144.941 17.3159 141.062 17.3159H137.302V23.5766H141.062C145.63 23.5766 148.485 25.8603 148.465 29.1088C148.485 32.3178 145.728 34.5228 141.83 34.5228C138.07 34.5228 135.255 32.5541 135.097 29.6009H126.513C126.651 36.6491 132.951 41.5512 141.811 41.5512Z" fill="#4C6EF5" fill-opacity="0.8"/>
<defs>
<linearGradient id="paint0_linear_878_3583" x1="0" y1="69.8274" x2="107.655" y2="69.8274" gradientUnits="userSpaceOnUse">
<stop stop-color="#1A1F29"/>
<stop offset="1" stop-color="#0D1118"/>
</linearGradient>
<linearGradient id="paint1_linear_878_3583" x1="248.442" y1="187.066" x2="130.479" y2="55.2723" gradientUnits="userSpaceOnUse">
<stop stop-color="#191F28"/>
<stop offset="1" stop-color="#191F28" stop-opacity="0"/>
</linearGradient>
</defs>
</svg>
