<svg width="113" height="28" viewBox="0 0 113 28" fill="none" xmlns="http://www.w3.org/2000/svg">
<path d="M11.4948 27.751L10.2127 26.9976L8.93064 26.2472L7.6515 25.4939L6.37235 24.7434L5.09613 23.993L3.81991 23.2455L2.5466 22.498L1.2733 21.7506L0 21.0031V7.61314L1.27038 8.35179L2.54368 9.09339V12.0715V13.5606V18.0279L2.5466 19.5169L3.81991 20.2644L5.09613 21.0119L6.37235 21.7594L7.6515 22.5069L8.93064 23.2573V21.7653L8.92772 20.2703V18.7783V17.2833V15.7913V14.2993L8.9248 12.8073L10.2069 13.5518L11.4889 14.2963L11.4918 18.7783V20.2733V21.7682V23.2632L11.4948 24.7581V26.2561V27.751Z" fill="white" fill-opacity="0.8"/>
<path d="M22.7266 8.35179L21.4533 9.09339L20.18 9.83498L18.9038 10.5766L17.6275 11.3211L16.3484 12.0657L15.0693 12.8102L13.7901 13.5547L12.508 14.3022L12.5051 18.7842V20.2791V21.7741V23.2691V24.764V26.259V27.7392L13.7872 26.9918L15.0663 26.2472V24.7552V23.2602V21.7682L16.3455 21.0178L17.6246 20.2703L18.9008 19.5228L20.1771 18.7753L21.4533 18.0279L22.7266 17.2833L23.9999 16.5388V7.61314L22.7266 8.35179ZM15.0693 17.2833V15.7913L16.3484 15.0468L17.6275 14.3022L18.9038 13.5577L20.18 12.8131L21.4562 12.0686V13.5577V15.0468L20.1829 15.7913L18.9067 16.5358L17.6305 17.2833L16.3513 18.0308L15.0722 18.7783L15.0693 17.2833Z" fill="white" fill-opacity="0.8"/>
<path d="M23.4596 6.72734L22.1863 7.46894L20.913 8.21054L19.6455 7.46894L18.3751 6.72734L17.1018 5.9828L15.8256 5.23826L14.5494 4.49372L13.2703 3.74624L11.9882 2.99582L10.7032 3.7433L9.42115 4.48784L8.13908 5.23532L6.85702 5.97986L5.57496 6.72734L4.29289 7.47188L3.01083 8.21936L1.71708 7.47482L0.42334 6.72734L1.70832 5.97986L2.99039 5.23238H2.99331L4.27537 4.48489H4.27829L5.56035 3.73741H5.56327L6.84534 2.98993L8.13032 2.24245L9.41531 1.49496L10.7003 0.747482L11.9853 0L13.2703 0.753368L14.5523 1.50379L15.8315 2.25422L17.1077 3.00464L18.3839 3.75213L19.6572 4.49667L20.9276 5.24121L22.1951 5.98574L23.4596 6.72734Z" fill="#4C6EF5"/>
<path d="M19.9729 8.7667L19.0851 9.2817L18.1973 9.79964L17.3124 9.28464L16.4276 8.7667L15.5397 8.24876L14.6519 7.72787L13.7583 7.20699L12.8676 6.68611L11.9739 6.16522L11.0803 6.68611L10.1866 7.20405L9.29005 7.72493L8.39641 8.24581L7.50276 8.7667L6.60911 9.28464L5.71546 9.80552L4.81305 9.28464L3.91064 8.7667L4.80721 8.24287L5.70086 7.72199H5.70378L6.59743 7.2011L7.494 6.68022L8.39057 6.15934L9.28421 5.63846L10.1808 5.11757L11.0774 4.59669L11.971 4.07581L12.8676 4.59963L13.7612 5.12346L14.6549 5.64728L15.5456 6.17111L16.4334 6.69199L17.3212 7.20993L18.2061 7.73082L19.091 8.24876L19.9729 8.7667Z" fill="#4C6EF5"/>
<path d="M43.6174 21.2156H40.7311L40.4595 19.526C38.7828 20.8944 37.1786 21.5403 35.4294 21.5403C33.1588 21.5403 32 20.3982 32 18.1357V8.96527H35.6503V17.0154C35.625 18.0846 35.9726 18.4568 36.9577 18.4568C37.8449 18.4568 38.7104 18.1357 39.9924 17.4387V8.96527H43.6174V21.2156Z" fill="#4C6EF5"/>
<path d="M57.8758 15.2017C57.8758 20.0734 56.2969 21.5403 53.2404 21.5403C51.7593 21.5403 50.3071 21.1937 49.17 20.347C49.2424 21.1937 49.2678 22.0877 49.2424 22.9818V25.9376H45.6174V8.96525H48.5761L48.8477 10.7533C49.8327 9.53452 51.8317 8.64047 53.6822 8.64047C56.6916 8.64412 57.8758 11.0526 57.8758 15.2017ZM54.1277 15.2017C54.1277 12.2459 53.5844 11.5233 52.2301 11.5233C51.169 11.5233 50.3542 11.9466 49.246 12.6911V18.3108C50.2093 18.5589 50.9734 18.8071 52.0092 18.8071C53.5591 18.8071 54.1277 18.2597 54.1277 15.2017Z" fill="#4C6EF5"/>
<path d="M70.5045 9.38858L70.1097 11.6766C68.7771 11.6511 67.5458 11.6255 66.6332 11.6255C64.4387 11.6255 63.6999 12.37 63.6999 15.0813C63.6999 17.7926 64.4387 18.5371 66.6332 18.5371C67.3973 18.5371 68.9509 18.5115 70.356 18.3145L70.6783 20.701C69.371 21.274 67.6218 21.5221 65.9669 21.5221C61.5017 21.5221 59.8757 19.807 59.8757 15.0849C59.8757 10.3374 61.5271 8.62225 66.0176 8.62225C67.2742 8.6186 69.1718 8.79376 70.5045 9.38858Z" fill="white" fill-opacity="0.8"/>
<path d="M84.2956 21.2156H81.4094L81.1378 19.526C79.4611 20.8944 77.8568 21.5403 76.1077 21.5403C73.8371 21.5403 72.6782 20.3982 72.6782 18.1357V8.96527H76.3286V17.0154C76.3032 18.0846 76.6509 18.4568 77.6359 18.4568C78.5231 18.4568 79.3886 18.1357 80.6706 17.4387V8.96527H84.2956V21.2156Z" fill="white" fill-opacity="0.8"/>
<path d="M98.4273 14.9791C98.4273 18.7304 97.3408 21.5148 92.4846 21.5148C90.7572 21.5148 87.7985 21.2155 86.2957 20.5696V3.82355H89.946L89.9713 7.72452C89.9713 8.74264 89.8989 9.71332 89.6273 10.6329C90.8115 9.38855 92.3651 8.61857 93.9693 8.61857C97.0946 8.61857 98.4273 10.4322 98.4273 14.9791ZM94.6791 15.0046C94.6791 12.3444 94.3098 11.5489 92.5099 11.5489C91.5466 11.5489 90.8332 11.9977 89.9207 12.5925L89.946 18.5334C90.7608 18.7304 91.7205 18.8071 92.4122 18.7815C94.0635 18.7341 94.6791 17.913 94.6791 15.0046Z" fill="white" fill-opacity="0.8"/>
<path d="M112.932 15.1032C112.932 19.7996 111.23 21.5403 106.692 21.5403C102.129 21.5403 100.427 19.7996 100.427 15.1032C100.427 10.3811 102.129 8.61856 106.692 8.61856C111.23 8.61856 112.932 10.3811 112.932 15.1032ZM104.251 15.1032C104.251 18.0371 104.769 18.7815 106.692 18.7815C108.568 18.7815 109.108 18.0371 109.108 15.1032C109.108 12.1218 108.564 11.3773 106.692 11.3773C104.769 11.3773 104.251 12.1218 104.251 15.1032Z" fill="white" fill-opacity="0.8"/>
</svg>
