<svg width="24" height="24" viewBox="0 0 24 24" fill="none" xmlns="http://www.w3.org/2000/svg">
<path d="M11.579 23.164L10.5106 22.5623L9.44219 21.963L8.37624 21.3613L7.31028 20.7619L6.24677 20.1626L5.18325 19.5656L4.12217 18.9686L3.06108 18.3716L2 17.7746V7.08057L3.05865 7.6705L4.11973 8.26279V10.6413V11.8306V15.3984L4.12217 16.5877L5.18325 17.1847L6.24677 17.7817L7.31028 18.3787L8.37624 18.9757L9.44219 19.575V18.3834L9.43975 17.1894V15.9978V14.8038V13.6122V12.4206L9.43732 11.2289L10.5057 11.8236L11.5741 12.4182L11.5765 15.9978V17.1918V18.3857V19.5797L11.579 20.7737V21.97V23.164Z" fill="white" fill-opacity="0.8"/>
<path d="M20.9389 7.6705L19.8778 8.26279L18.8167 8.85508L17.7532 9.44737L16.6897 10.042L15.6237 10.6366L14.5578 11.2313L13.4918 11.8259L12.4235 12.4229L12.421 16.0025V17.1965V18.3904V19.5844V20.7784V21.9724V23.1546L13.4894 22.5576L14.5554 21.963V20.7713V19.5774V18.3857L15.6213 17.7864L16.6873 17.1894L17.7508 16.5924L18.8143 15.9954L19.8778 15.3984L20.9389 14.8038L22 14.2092V7.08057L20.9389 7.6705ZM14.5578 14.8038V13.6122L15.6237 13.0175L16.6897 12.4229L17.7532 11.8283L18.8167 11.2336L19.8802 10.639V11.8283V13.0175L18.8192 13.6122L17.7556 14.2068L16.6921 14.8038L15.6262 15.4008L14.5602 15.9978L14.5578 14.8038Z" fill="white" fill-opacity="0.8"/>
<path d="M21.5493 6.37289L20.4882 6.96518L19.4271 7.55747L18.3709 6.96518L17.3122 6.37289L16.2511 5.77826L15.1876 5.18362L14.1241 4.58898L13.0582 3.99199L11.9898 3.39265L10.919 3.98964L9.85058 4.58428L8.78219 5.18127L7.71381 5.77591L6.64542 6.37289L5.57704 6.96753L4.50865 7.56452L3.43054 6.96988L2.35242 6.37289L3.42323 5.77591L4.49162 5.17892H4.49405L5.56244 4.58193H5.56487L6.63325 3.98494H6.63569L7.70407 3.38795L8.77489 2.79096L9.84571 2.19398L10.9165 1.59699L11.9873 1L13.0582 1.60169L14.1265 2.20103L15.1925 2.80037L16.256 3.3997L17.3195 3.99669L18.3806 4.59133L19.4393 5.18597L20.4955 5.78061L21.5493 6.37289Z" fill="#4C6EF5"/>
<path d="M18.644 8.00182L17.9042 8.41314L17.1643 8.8268L16.4269 8.41549L15.6895 8.00182L14.9497 7.58816L14.2099 7.17215L13.4652 6.75614L12.7229 6.34013L11.9782 5.92412L11.2335 6.34013L10.4888 6.75379L9.74162 7.1698L8.99692 7.58581L8.25221 8.00182L7.50751 8.41549L6.7628 8.8315L6.0108 8.41549L5.25879 8.00182L6.00593 7.58346L6.75063 7.16745H6.75307L7.49777 6.75144L8.24491 6.33543L8.99205 5.91942L9.73676 5.50341L10.4839 5.08739L11.231 4.67138L11.9757 4.25537L12.7229 4.67373L13.4676 5.09209L14.2123 5.51046L14.9546 5.92882L15.6944 6.34483L16.4342 6.75849L17.1716 7.1745L17.909 7.58816L18.644 8.00182Z" fill="#4C6EF5"/>
</svg>
